<?xml version="1.0" encoding="UTF-8" standalone="no"?>
<!-- Generator: Adobe Illustrator 23.0.1, SVG Export Plug-In . SVG Version: 6.00 Build 0)  -->

<svg
   xmlns:dc="http://purl.org/dc/elements/1.1/"
   xmlns:cc="http://creativecommons.org/ns#"
   xmlns:rdf="http://www.w3.org/1999/02/22-rdf-syntax-ns#"
   xmlns:svg="http://www.w3.org/2000/svg"
   xmlns="http://www.w3.org/2000/svg"
   xmlns:sodipodi="http://sodipodi.sourceforge.net/DTD/sodipodi-0.dtd"
   xmlns:inkscape="http://www.inkscape.org/namespaces/inkscape"
   version="1.1"
   id="Layer_1"
   x="0px"
   y="0px"
   viewBox="0 0 699.99999 699.99999"
   enable-background="new 0 0 198.425 198.425"
   xml:space="preserve"
   sodipodi:docname="red-bull-bragantino-logo.svg"
   inkscape:version="0.92.4 (5da689c313, 2019-01-14)"
   width="700"
   height="700"
   inkscape:export-filename="G:\Users\suitedoalex\sites\red-bull-bragantino-logo-0.png"
   inkscape:export-xdpi="561.73999"
   inkscape:export-ydpi="561.73999"><metadata
   id="metadata57"><rdf:RDF><cc:Work
       rdf:about=""><dc:format>image/svg+xml</dc:format><dc:type
         rdf:resource="http://purl.org/dc/dcmitype/StillImage" /><dc:title></dc:title></cc:Work></rdf:RDF></metadata><defs
   id="defs55" /><sodipodi:namedview
   pagecolor="#ffffff"
   bordercolor="#666666"
   borderopacity="1"
   objecttolerance="10"
   gridtolerance="10"
   guidetolerance="10"
   inkscape:pageopacity="0"
   inkscape:pageshadow="2"
   inkscape:window-width="1600"
   inkscape:window-height="837"
   id="namedview53"
   showgrid="false"
   inkscape:zoom="0.42050447"
   inkscape:cx="740.83696"
   inkscape:cy="303.2931"
   inkscape:window-x="-8"
   inkscape:window-y="-8"
   inkscape:window-maximized="1"
   inkscape:current-layer="g50" />

<g
   id="g50"
   transform="matrix(4.6291064,0,0,4.6291064,-203.17338,492.07092)"><path
     d="m 79.709316,-75.842364 v 60.513318 c 0,4.781551 0.614538,6.6223442 2.084353,9.1797212 l 0.08288,0.143768 0.0919,0.137566 c 8.526846,12.72938 22.689954,20.3287798 37.886504,20.3287798 15.19486,0 29.35741,-7.5988398 37.88481,-20.3282158 l 0.0925,-0.137566 0.0823,-0.143768 c 1.46926,-2.55625 2.08379,-4.3964792 2.08379,-9.1797212 v -60.513882 z"
     id="path2"
     inkscape:connector-curvature="0"
     style="clip-rule:evenodd;fill:#ffffff;fill-rule:evenodd;stroke-width:0.56379569"
     inkscape:export-filename="G:\Users\suitedoalex\sites\red-bull-bragantino-logo-4.png"
     inkscape:export-xdpi="74.152"
     inkscape:export-ydpi="74.152" /><path
     d="m 155.16491,-25.697812 v 10.368202 c 0,4.125293 -0.47866,5.096713 -1.44106,6.7711862 -7.35133,10.973723 -19.77795,18.184663 -33.8689,18.184663 -14.09263,0 -26.519256,-7.21094 -33.870024,-18.184663 -0.962399,-1.6744732 -1.441625,-2.6453292 -1.441625,-6.7711862 v -9.473459 -15.36907 -30.836241 h 70.622169 v 30.322623 14.987945 z m 2.1723,-13.710384 V -73.180685 H 82.370996 v 34.459192 16.609421 6.782462 c 0,4.384075 0.527149,5.7603012 1.730289,7.8536742 l 0.03721,0.06484 0.04116,0.06202 c 8.031834,11.990235 21.367858,19.1481848 35.674738,19.1481848 14.30575,0 27.64177,-7.1579498 35.6736,-19.1481908 l 0.0412,-0.06145 0.0372,-0.06484 c 1.20314,-2.092246 1.73029,-3.4679072 1.73029,-7.8542382 v -6.957802 -17.120784 z"
     id="path4"
     inkscape:connector-curvature="0"
     style="clip-rule:evenodd;fill:#001a4b;fill-rule:evenodd;stroke-width:0.56379569"
     inkscape:export-filename="G:\Users\suitedoalex\sites\red-bull-bragantino-logo-4.png"
     inkscape:export-xdpi="74.152"
     inkscape:export-ydpi="74.152" /><path
     d="m 157.85252,-21.944625 v 6.615579 c 0,4.510365 -0.54801,5.9356412 -1.79907,8.1107652 l -0.0457,0.07949 -0.0507,0.07611 c -8.12824,12.13288 -21.62438,19.3765298 -36.10209,19.3765298 -14.47884,0 -27.975541,-7.2436498 -36.10322,-19.3765298 l -0.0513,-0.07668 -0.04567,-0.0795 c -1.251062,-2.176815 -1.799072,-3.6015272 -1.799072,-8.1107652 v -6.535503 -16.75037 -35.080495 h 75.996835 v 34.433821 z m 1.20484,-17.092593 V -74.900825 H 80.650291 v 36.407106 17.314165 5.849944 c 0,4.778732 0.627505,6.3934432 1.95919,8.7106432 l 0.06653,0.115578 0.07442,0.111068 c 8.351506,12.46721 22.22257,19.9110098 37.10396,19.9110098 14.88026,0 28.75076,-7.4437998 37.10283,-19.9110098 l 0.0739,-0.110504 0.0665,-0.115578 c 1.33168,-2.316072 1.95919,-3.9307832 1.95919,-8.7112072 v -5.891101 -17.816507 z"
     id="path6"
     inkscape:connector-curvature="0"
     style="clip-rule:evenodd;fill:#0f2045;fill-opacity:1;fill-rule:evenodd;stroke-width:0.56379569"
     inkscape:export-filename="G:\Users\suitedoalex\sites\red-bull-bragantino-logo-4.png"
     inkscape:export-xdpi="74.152"
     inkscape:export-ydpi="74.152" /><g
     id="g10"
     style="fill:#d71e3d;fill-opacity:1"
     transform="matrix(0.56379568,0,0,0.56379568,63.563335,-87.556911)"
     inkscape:export-filename="G:\Users\suitedoalex\sites\red-bull-bragantino-logo-4.png"
     inkscape:export-xdpi="74.152"
     inkscape:export-ydpi="74.152"><path
       d="m 87.728,57.06 c -2.181,0 -3.95,-1.911 -3.95,-4.268 0,-2.357 1.769,-4.268 3.95,-4.268 2.181,0 3.95,1.911 3.95,4.268 0,2.357 -1.768,4.268 -3.95,4.268 z m 3.859,-24.073 0.022,13.196 c -1.427,-1.396 -3.33,-2.241 -5.407,-2.241 -4.443,0 -8.045,3.891 -8.045,8.691 0,4.8 3.602,8.69 8.045,8.69 2.1,0 3.999,-0.882 5.432,-2.305 V 61.16 H 96.98 L 96.973,32.988 h -5.386 z m 22.284,23.392 h -4.967 v -17.76 h 3.465 c 1.52,0 2.754,1.3 2.754,2.902 0,1.602 -1.234,2.901 -2.754,2.901 h -1.803 v 4.925 h 3.305 c 1.842,0 3.237,1.566 3.237,3.509 -0.065,2.007 -1.233,3.391 -3.237,3.523 z m 4.346,-10.151 c 1.419,-1.396 2.287,-3.267 2.287,-5.322 0,-1.862 -0.68,-3.573 -1.869,-4.917 -1.238,-1.436 -3.429,-2.074 -6.392,-2.074 h -8.872 v 27.24 h 11.459 c 4.393,-0.076 7.928,-3.589 7.928,-7.875 0,-3.118 -1.043,-5.341 -4.541,-7.052 z m 26.44,14.949 h 5.189 v -27.98 h -5.189 z m -8.723,-6.921 c 0,1.637 -1.363,2.964 -3.043,2.964 -1.682,0 -3.043,-1.327 -3.043,-2.964 v -9.828 h -5.286 v 10.873 c 0,3.681 3.719,6.665 8.309,6.665 4.591,0 8.313,-2.984 8.313,-6.665 V 44.427 h -5.25 z M 58.843,41.918 c 0,-4.448 -3.502,-8.054 -7.822,-8.054 -0.132,0 -0.736,0.002 -0.866,0.009 h -9.098 v 27.263 h 5.523 v -22.56 l 3.294,-0.03 c 2.04,0 3.588,1.598 3.588,3.569 0,1.97 -1.654,3.567 -3.692,3.567 l -1.283,0.03 v 6.492 l 5.517,8.931 h 6.509 L 52.885,49.742 c 3.42,-0.86 5.958,-4.037 5.958,-7.824 z m 6.056,8.726 c 0,-1.837 1.456,-3.327 3.254,-3.327 1.796,0 3.253,1.49 3.253,3.327 z m 3.207,-7.139 c 4.861,0 8.676,3.233 8.596,9.128 0.003,0.39 -0.015,0.771 -0.051,1.143 L 64.885,53.77 c -0.014,0.118 0.034,0.069 0.034,0.19 0,1.874 1.623,3.395 3.624,3.395 1.5,0 2.787,-0.854 3.338,-2.071 l 4.324,2.039 c -1.492,2.689 -4.387,4.407 -8.098,4.407 -4.862,0 -8.804,-4.085 -8.804,-9.117 0,-5.029 3.942,-9.108 8.803,-9.108 z m 85.325,17.672 h 5.19 v -27.98 h -5.19 z m 0,-27.98 v 27.98 z"
       id="path8"
       inkscape:connector-curvature="0"
       style="clip-rule:evenodd;fill:#d71e3d;fill-opacity:1;fill-rule:evenodd" /></g><path
     d="m 140.71877,-33.017008 c 0,11.586001 -9.3917,20.978273 -20.97658,20.978273 -11.58543,0 -20.97658,-9.392836 -20.97658,-20.978273 0,-11.585437 9.39115,-20.976582 20.97658,-20.976582 11.58544,0 20.97658,9.391145 20.97658,20.976582 z"
     id="path12"
     inkscape:connector-curvature="0"
     style="clip-rule:evenodd;fill:#fdcc09;fill-opacity:1;fill-rule:evenodd;stroke-width:0.56379569"
     inkscape:export-filename="G:\Users\suitedoalex\sites\red-bull-bragantino-logo-4.png"
     inkscape:export-xdpi="74.152"
     inkscape:export-ydpi="74.152" /><path
     d="m 137.98493,-26.212558 c -0.21086,-0.404805 -0.94323,-1.302932 -0.84851,-1.872929 0.54068,0.06653 1.35818,0.07217 1.65868,0.08964 -0.0936,0.171394 -0.70756,1.576373 -0.81017,1.783286 z m 37.40164,6.233325 c -0.0406,-0.162373 -0.1043,-0.338841 -0.15504,-0.474716 l -0.0479,-0.129109 c -0.04,-0.103738 -0.0778,-0.20353 -0.11558,-0.315726 -0.0163,-0.04961 -0.0327,-0.09866 -0.0412,-0.140385 -0.006,-0.02988 -0.008,-0.06145 -0.006,-0.09134 0.0519,-0.594804 -0.0964,-0.904892 -0.32982,-1.309133 -0.18155,-0.316853 -0.43582,-0.439761 -0.60496,-0.44709 -0.0434,0.123471 -0.16124,0.200711 -0.29204,0.200711 -0.0175,0 -0.0355,-0.0011 -0.0524,-0.0039 -0.16858,-0.02593 -0.28416,-0.192254 -0.26555,-0.360829 0.005,-0.04003 0.0101,-0.08344 0.0118,-0.130237 0.006,-0.15899 -0.0293,-0.301066 -0.10825,-0.448781 -0.20015,-0.373796 -1.64234,-1.561714 -2.18922,-1.561714 -0.44314,0 -0.9094,0.244124 -1.24711,0.652312 -0.0598,0.07386 -0.14941,0.115014 -0.24413,0.115014 -0.0102,0 -0.0203,-5.64e-4 -0.0293,-0.0017 -0.10543,-0.01015 -0.19845,-0.0716 -0.24863,-0.164065 -0.0485,-0.08908 -0.0902,-0.184925 -0.12742,-0.285844 -0.0981,-0.260474 -0.15561,-0.526022 -0.21142,-0.781985 l -0.0434,-0.197892 c -0.15279,-0.666971 -0.37718,-1.340143 -1.26854,-1.598925 -0.0716,-0.02142 -0.16632,-0.03721 -0.28021,-0.04736 -0.097,-0.0096 -0.20127,-0.01353 -0.30952,-0.01691 l -0.0812,-0.0023 c -0.17985,-0.0039 -0.36478,-0.0085 -0.54858,-0.03439 -0.36534,-0.05356 -0.60946,-0.172522 -0.60946,-0.582401 0,-0.03608 0.006,-0.07104 0.0175,-0.103739 l 0.0981,-0.282461 c 0.0733,-0.205786 0.17703,-0.522075 0.25935,-0.899818 0.15279,-0.700798 0.16463,-1.342398 0.035,-1.907885 -0.0231,-0.102611 0.006,-0.209168 0.0767,-0.28528 0.0609,-0.0654 0.14433,-0.102047 0.23228,-0.102047 0.0152,0 0.0316,0.0017 0.0462,0.0039 0.36647,0.05582 0.66302,0.05976 0.7459,0.05976 1.90225,0 4.91968,-1.240915 4.91968,-4.572947 0,-1.914087 -1.551,-3.734583 -2.85168,-4.924756 -0.0851,-0.0778 -0.12121,-0.196764 -0.093,-0.309523 0.0276,-0.112196 0.11502,-0.200148 0.22665,-0.230029 1.84925,-0.482609 2.86859,-1.713375 2.86859,-3.465088 v -0.116706 c 0.001,-0.274004 0.002,-0.584092 -0.0524,-0.916731 -0.0772,-0.465132 -0.2492,-0.895308 -0.52433,-1.315336 -0.0293,-0.04341 -0.0744,-0.09246 -0.17759,-0.09246 -0.0389,0 -0.0677,0.0073 -0.0767,0.0096 -0.0744,0.0203 -0.15336,0.06878 -0.20635,0.104302 -0.17196,0.113887 -0.42116,0.325311 -0.62018,0.497268 -0.22608,0.193382 -0.49727,0.336586 -0.87839,0.464004 -0.23116,0.0778 -0.4719,0.141513 -0.72786,0.208041 -0.13419,0.03552 -0.27232,0.07217 -0.41439,0.112195 -0.88178,0.246943 -1.84474,0.604953 -2.91483,1.547619 -0.48993,0.431868 -0.82934,1.148452 -0.8626,1.828389 -0.0293,0.571689 0.18323,1.161983 0.65231,1.805274 0.40368,0.558722 0.94097,1.085871 1.50364,1.62204 l 0.19959,0.190563 c 0.20465,0.195074 0.40762,0.388455 0.601,0.581274 0.29318,0.292046 0.51306,0.530531 0.69347,0.751539 0.44484,0.54801 0.65344,0.998482 0.65344,1.417946 0,0.894744 -0.64047,1.49575 -1.6102,1.49575 -1.07234,-0.0085 -1.89774,-0.420027 -3.04506,-1.177769 -0.17478,-0.115578 -0.3535,-0.236794 -0.53843,-0.361393 -0.38056,-0.256527 -0.77409,-0.522075 -1.21216,-0.796643 -0.79495,-0.495577 -1.52845,-0.88967 -2.31043,-1.238096 -0.41326,-0.184925 -0.82145,-0.32982 -1.28546,-0.453855 -0.3332,-0.08908 -0.64836,-0.153916 -0.95281,-0.217061 l -0.14884,-0.03157 c -0.70193,-0.147151 -1.28828,-0.29261 -1.91127,-0.703053 -0.17816,-0.117833 -0.36196,-0.242432 -0.55026,-0.371542 -0.32531,-0.221007 -0.66359,-0.4516 -1.00807,-0.66697 -0.6619,-0.412698 -1.19581,-0.673736 -1.6818,-0.819759 -0.15054,-0.04567 -0.30671,-0.0795 -0.50686,-0.108812 -0.0868,-0.01353 -0.17308,-0.02368 -0.25821,-0.03439 l -0.20241,-0.02706 c -0.31234,-0.04341 -0.57902,-0.10543 -0.86148,-0.267803 -0.17872,-0.104302 -0.34786,-0.216498 -0.53617,-0.354627 -0.13418,-0.100356 -0.26329,-0.201276 -0.39465,-0.305014 l -0.0902,-0.07104 c -0.33208,-0.25991 -0.70418,-0.539553 -1.27362,-0.847949 -0.85866,-0.464567 -1.71957,-0.695724 -2.45871,-0.875011 l -0.14321,-0.03552 c -0.28697,-0.06822 -0.53447,-0.127981 -0.74533,-0.197328 -0.12347,-0.03947 -0.21876,-0.07837 -0.28585,-0.115015 -0.0462,-0.02368 -0.0863,-0.05131 -0.10317,-0.06371 -0.022,-0.01635 -0.04,-0.03552 -0.0575,-0.05638 -1.83798,-2.309871 -4.04016,-2.490849 -4.67161,-2.490849 -0.14377,0 -0.28077,0.0079 -0.40763,0.02199 -0.73575,0.08006 -1.61584,0.729551 -2.37978,1.353109 -0.27739,0.22721 -0.55872,0.467387 -0.84513,0.710947 -0.57958,0.495012 -1.17777,1.006375 -1.76693,1.425275 -3.04168,2.163848 -4.14446,3.030966 -5.58553,4.604519 -1.94847,2.128329 -2.56019,4.830602 -3.10031,7.213766 l -0.0395,0.173085 c -0.26104,1.156909 -0.53166,2.353847 -0.9297,3.450994 -0.46682,1.28489 -1.03964,2.25631 -1.80189,3.054081 -0.36985,0.386764 -0.6805,0.68332 -0.94774,0.904328 -0.17985,0.149406 -0.31403,0.241305 -0.43018,0.321928 l -0.0784,0.05581 c -0.32192,0.229465 -0.44709,0.520384 -0.35519,0.819195 0.11953,0.38169 0.60834,0.775219 1.43148,0.788751 0.0953,0.0023 0.18492,0.0468 0.24243,0.122343 0.0603,0.07555 0.0817,0.173086 0.0592,0.266112 -0.0338,0.14264 -0.007,0.263292 0.0829,0.379434 0.22439,0.289791 0.76225,0.45442 1.06445,0.462313 l 0.13136,0.0017 c 1.45516,0 2.70509,-0.534478 3.71993,-1.587085 0.062,-0.06427 0.14489,-0.09697 0.22721,-0.09697 0.0772,0 0.15391,0.02819 0.21424,0.08344 0.40311,0.371542 0.92293,0.558722 1.58708,0.571125 l 0.071,0.0011 c 0.30896,0 0.61849,-0.03552 0.90038,-0.06596 0.14321,-0.01635 0.27965,-0.03045 0.40988,-0.04003 0.0722,-0.0045 0.14208,-0.009 0.20748,-0.009 0.0474,0 0.0925,0.0017 0.13362,0.0056 0.17139,0.01409 0.39296,0.06822 0.69572,0.170831 0.20917,0.07273 0.43356,0.157862 0.66077,0.245251 l 0.20409,0.07893 c 0.44484,0.169139 1.11463,0.425666 1.62599,0.425666 0.0293,0 0.0569,-0.0011 0.084,-0.0028 1.1462,-0.07047 1.57525,-0.924061 1.7286,-1.425839 0.04,-0.13362 0.16294,-0.223827 0.30163,-0.223827 h 0.0107 c 0.14264,0.0039 0.26442,0.103738 0.29712,0.242996 0.0293,0.120652 0.0603,0.238485 0.0942,0.352936 0.18041,0.603825 0.41777,1.009194 0.76958,1.314207 0.10938,0.09415 0.24638,0.151661 0.44596,0.184925 0.16914,0.02819 0.41383,0.04285 0.76902,0.04454 0.0688,0 0.13588,0.02368 0.18944,0.06484 0.0389,0.03045 0.0925,0.07837 0.17365,0.160118 0.0739,0.07386 0.1494,0.151097 0.22269,0.214806 0.0648,0.05525 0.16407,0.1308 0.28021,0.171958 1.60907,0.546318 3.70188,1.137739 4.75054,1.154653 h 0.0383 c 1.43261,0 1.9186,-1.372279 2.06124,-1.9637 0.0293,-0.119525 0.12516,-0.211987 0.24638,-0.235667 1.33394,-0.262729 2.06518,-2.26815 2.0618,-2.612629 -0.008,-0.644982 -0.25653,-0.900382 -0.89531,-0.947741 l -2.32509,-5.63e-4 c -0.0519,0 -0.10318,0.0079 -0.15504,0.02255 -0.0293,0.0085 -0.0586,0.0124 -0.0874,0.0124 -0.10656,0 -0.20805,-0.05356 -0.26724,-0.145459 -0.084,-0.131365 -0.1776,-0.196201 -0.33152,-0.232848 -0.11614,-0.02706 -0.20747,-0.118397 -0.2351,-0.235103 -0.0276,-0.116142 0.0118,-0.238485 0.10487,-0.315162 0.0474,-0.04059 0.0936,-0.08062 0.137,-0.121779 0.0592,-0.05525 0.13587,-0.08513 0.21593,-0.08513 h 0.0135 c 0.31573,0.01409 0.93365,0.03721 1.52,0.03721 0.25991,0 0.51418,-0.0051 0.73124,-0.01748 0.46908,-0.02537 0.85979,-0.07104 1.27249,-0.118961 0.64723,-0.07386 1.3159,-0.151661 2.32058,-0.152224 l 2.17907,0.119524 c 0.46513,0 0.88967,-0.06089 1.26065,-0.179851 0.031,-0.0096 0.0637,-0.01522 0.0958,-0.01522 0.0598,0 0.11952,0.01748 0.17083,0.05018 0.0795,0.04961 0.13249,0.133056 0.14377,0.226646 0.14038,1.101656 0.5029,2.07364 1.04584,2.809957 0.14207,0.192255 0.31854,0.358011 0.55815,0.522075 0.12404,0.08513 0.25484,0.162937 0.38677,0.241868 0.0761,0.04567 0.15222,0.0919 0.2289,0.140386 0.57338,0.358574 1.28714,0.806227 2.1802,0.8051 0.23961,0 0.48655,-0.03214 0.73462,-0.09472 0.26724,-0.06935 0.53392,-0.101483 0.81638,-0.101483 0.14038,0 0.27739,0.0085 0.40988,0.02199 0.3535,0.04003 0.66922,0.118397 0.9235,0.18267 l 0.0665,0.01691 c 0.41439,0.103174 0.80566,0.267239 1.1975,0.50065 0.32192,0.192255 0.59424,0.399168 0.8564,0.598751 l 0.0705,0.05356 c 0.52208,0.395784 1.06276,0.804536 1.81655,0.804536 0.0288,0 0.0592,-0.0011 0.0908,-0.0023 0.0502,-0.0017 0.10769,-0.01748 0.13306,-0.02481 0.0417,-0.01128 0.0913,-0.02706 0.14546,-0.04623 0.10317,-0.03721 0.22552,-0.0857 0.3473,-0.134747 0.11783,-0.04567 0.25145,-0.09923 0.40367,-0.128546 0.0203,-0.0034 0.0406,-0.0056 0.062,-0.0056 0.10318,0 0.20184,0.05074 0.26161,0.138694 0.0389,0.05694 0.0778,0.121216 0.12008,0.188872 0.075,0.122907 0.15336,0.249197 0.25258,0.376615 0.2898,0.374924 0.81976,0.876702 2.05673,0.907147 0.11276,0.0034 0.22101,0.0039 0.32475,0.0039 0.64442,0 1.04076,-0.05018 1.21892,-0.07949 0.0175,-0.0034 0.0338,-0.0039 0.0519,-0.0039 0.0643,0 0.12686,0.01917 0.18042,0.05638 0.13193,0.09134 0.27062,0.135874 0.42623,0.135874 0.33377,0 0.82709,-0.09979 1.22907,-0.24807 0.23736,-0.08795 0.433,-0.188307 0.57902,-0.296556 0.18944,-0.140385 0.29938,-0.295993 0.32531,-0.462313 0.022,-0.127417 0.01,-0.276823 -0.0366,-0.460057 z m -72.76798,-7.519343 c -0.21537,0.265548 -0.53842,0.346171 -0.83047,0.866554 -0.59199,-0.230592 -0.69572,-1.009194 -0.80341,-1.345216 0.4719,-0.08682 1.58709,-0.298812 2.17174,-0.386764 -0.2413,0.304449 -0.41495,0.510235 -0.53786,0.865426 z m 14.02893,2.448565 c -0.59537,-0.335459 -0.94943,-0.854151 -1.19187,-1.269104 -0.10486,-0.179851 -0.20183,-0.363085 -0.29655,-0.541244 l -0.11051,-0.207477 c -0.11783,-0.220444 -0.26273,-0.474152 -0.43186,-0.695724 -0.0654,-0.08175 -0.1449,-0.169702 -0.22609,-0.255399 l -0.23905,-0.249762 c -0.0755,-0.07837 -0.14658,-0.156735 -0.20353,-0.230592 -0.0586,-0.07442 -0.0992,-0.139258 -0.11896,-0.189999 -1.04809,-2.681413 -1.29447,-4.20197 -1.67165,-6.873797 -0.19451,-1.37397 -1.03569,-2.485212 -2.39839,-4.154611 -0.17083,-0.206913 -0.35914,-0.453291 -0.56154,-0.714329 -0.13926,-0.179287 -0.28359,-0.365339 -0.43074,-0.551392 -0.44652,-0.564923 -0.81243,-0.98326 -1.10109,-1.264594 -0.48938,-0.411571 -0.92124,-0.778602 -1.31139,-1.10955 -0.55477,-0.471333 -1.02498,-0.871064 -1.45798,-1.227383 -0.81919,-0.673172 -1.44839,-1.147324 -2.17399,-1.636698 -1.01314,-0.683885 -2.09619,-1.030619 -3.219275,-1.030619 -1.147324,0 -1.991326,0.369286 -2.277735,0.564923 -0.966909,0.657386 -1.695333,1.064447 -2.513964,1.405543 -0.593677,0.246379 -1.21047,0.447654 -1.991327,0.703617 -0.249761,0.08231 -0.518128,0.169702 -0.809046,0.266675 -0.886851,0.296557 -1.516047,0.811302 -1.963137,1.226819 -0.109376,0.102048 -0.21086,0.201839 -0.308396,0.295993 -0.10994,0.107685 -0.213679,0.208605 -0.312907,0.297684 -0.201839,0.184925 -0.342224,0.283026 -0.469078,0.328693 -0.134183,0.04792 -0.351808,0.08175 -0.665279,0.103175 -0.161809,0.01184 -0.332075,0.01861 -0.496704,0.02593 -0.120652,0.0045 -0.239049,0.01015 -0.350117,0.01691 -1.018779,0.0592 -1.836282,0.632579 -2.362868,1.058809 -0.274568,0.221571 -0.52884,0.453855 -0.775219,0.67881 l -0.117269,0.107685 c -0.310088,0.281334 -0.531096,0.470769 -0.741391,0.606644 -0.722787,0.466823 -1.406671,0.533914 -2.156519,0.608335 -0.3862,0.03777 -0.783676,0.07724 -1.211033,0.16632 -0.509108,0.10543 -0.989462,0.266112 -1.469252,0.490502 -0.538425,0.254272 -1.084179,0.579018 -1.766372,1.053171 -0.294865,0.204657 -0.584656,0.414389 -0.869373,0.623558 -0.254271,0.185488 -0.505724,0.367594 -0.755486,0.542371 -1.126464,0.789314 -2.091682,1.314208 -3.139778,1.314208 -1.034002,0 -1.768063,-0.604953 -1.868983,-1.541418 -0.08852,-0.82596 0.333767,-1.660378 1.188481,-2.351591 l 0.47077,-0.377744 c 0.350681,-0.281334 0.679374,-0.544062 0.977621,-0.800026 0.496704,-0.425665 0.834418,-0.769017 1.094892,-1.111805 0.642163,-0.844002 0.806228,-1.713375 0.529968,-2.818978 -0.24807,-0.992844 -1.012577,-1.669399 -2.335806,-2.065747 -0.471897,-0.142641 -0.952251,-0.228901 -1.40216,-0.302195 l -0.156171,-0.02481 c -0.138694,-0.02142 -0.263857,-0.04228 -0.371541,-0.06202 -0.144896,-0.02706 -0.246379,-0.05243 -0.305578,-0.07724 -0.717148,-0.319672 -2.276607,-1.362694 -2.588949,-1.57299 l -0.127418,-0.08626 -0.08739,0.12629 c -0.284716,0.409316 -0.509671,0.732935 -0.680501,2.154827 -0.18718,1.570171 1.105603,3.486513 3.33316,3.837194 0.124035,0.01917 0.224955,0.111067 0.256527,0.232283 0.03214,0.12178 -0.01128,0.250889 -0.110504,0.328693 -2.355538,1.852633 -2.85788,2.647585 -2.981915,4.729682 -0.07611,1.290529 0.37436,2.556814 1.239787,3.474673 0.944921,1.001301 2.313817,1.531269 3.960664,1.531269 0.439197,0 0.902637,-0.03777 1.376789,-0.111631 0.01635,-0.0034 0.03383,-0.0045 0.04961,-0.0045 0.07048,0 0.140385,0.02424 0.195637,0.06822 0.06991,0.05469 0.112196,0.135875 0.119525,0.223827 0.109376,1.447828 0.372105,2.625597 0.700234,3.151618 0.08062,0.129109 0.05864,0.297121 -0.05356,0.400295 -0.10092,0.09303 -0.261038,0.184925 -0.46344,0.263293 -0.502906,0.196201 -1.265158,0.317417 -2.025718,0.317417 -0.473589,0 -0.826525,0.325874 -1.110114,1.024416 -0.09246,0.227774 -0.167447,0.469642 -0.241305,0.704181 l -0.02086,0.06596 c -0.03777,0.118961 -0.07273,0.230029 -0.108813,0.326438 -0.0327,0.09077 -0.06709,0.173649 -0.103738,0.241305 -0.09472,0.169138 -0.235103,0.335458 -0.429612,0.50798 -0.05863,0.05074 -0.133056,0.07893 -0.208605,0.07893 -0.01804,0 -0.03721,-0.0017 -0.05356,-0.0045 -0.09528,-0.01635 -0.177032,-0.07442 -0.223263,-0.157863 -0.232284,-0.419464 -0.598751,-0.68614 -1.088126,-0.793261 l -0.01071,-0.0011 -0.04961,-5.64e-4 c -0.72335,0 -1.973285,0.610591 -2.433906,1.759042 -0.04341,0.107122 -0.142076,0.183234 -0.257655,0.195637 l -0.05751,0.0068 c -0.576763,0.06089 -0.939847,0.328129 -1.145069,0.841183 -0.0857,0.218189 -0.137002,0.461185 -0.178159,0.673736 l -0.03044,0.156735 c -0.0327,0.176468 -0.06709,0.355755 -0.112759,0.530532 -0.03665,0.138694 -0.08626,0.261601 -0.160682,0.398603 -0.03608,0.06766 -0.07386,0.12911 -0.108813,0.188308 -0.02706,0.04341 -0.053,0.0857 -0.07611,0.126854 -0.127982,0.235667 -0.193382,0.476971 -0.09077,0.887978 0.04623,0.187181 0.195637,0.350118 0.441452,0.483173 0.182106,0.09923 0.418336,0.184362 0.701362,0.252581 0.501778,0.122344 0.998482,0.161245 1.094327,0.161245 0.06935,0 0.13813,-0.01973 0.205222,-0.05694 0.04849,-0.02763 0.09359,-0.06371 0.14715,-0.103175 0.05694,-0.04341 0.134184,-0.07047 0.208605,-0.07047 0.01691,0 0.03326,5.64e-4 0.04849,0.0039 l 0.234539,0.04398 c 0.192818,0.03665 0.432995,0.08513 0.671481,0.133619 l 0.03834,0.0079 c 0.228337,0.04623 0.453855,0.09134 0.636525,0.125163 0.09867,0.0186 0.186053,0.03383 0.251453,0.04341 0.07386,0.01071 0.131365,0.01522 0.165756,0.01522 h 0.0028 c 0.995099,-0.0468 1.414563,-0.433559 1.693642,-0.805664 0.07837,-0.104303 0.148278,-0.21537 0.217625,-0.330385 l 0.112759,-0.19169 0.08457,-0.143768 c 0.08175,-0.139258 0.162937,-0.266675 0.251453,-0.388455 0.06089,-0.08344 0.156171,-0.129673 0.255963,-0.129673 0.0265,0 0.05469,0.0034 0.08231,0.01071 0.113323,0.03045 0.227773,0.0513 0.32531,0.06935 0.230593,0.0389 0.442016,0.05863 0.531659,0.06484 0.06597,0.0045 0.12911,0.0068 0.192255,0.0068 0.941539,0 1.643464,-0.524894 2.225301,-1.017088 l 0.191127,-0.162373 c 0.08908,-0.07668 0.176468,-0.153352 0.263856,-0.225518 0.115579,-0.09584 0.269495,-0.220444 0.428485,-0.327002 0.282462,-0.18718 0.521511,-0.275132 0.753795,-0.275132 l 0.05751,0.0023 c 0.226082,0.01297 1.07685,0.07555 2.520731,0.30445 0.06145,0.009 0.124035,0.01353 0.188307,0.01353 0.324747,0 0.7397,-0.111631 1.233585,-0.332639 0.355192,-0.158427 0.761688,-0.379999 1.174951,-0.636526 0.08852,-0.05525 0.193382,-0.105429 0.3208,-0.164064 l 0.03721,-0.01691 c 0.117269,-0.053 0.243559,-0.10994 0.372669,-0.175904 0.237357,-0.121216 0.584092,-0.322491 0.863734,-0.673736 0.164629,-0.205222 0.386764,-0.639908 0.602698,-1.079105 l 0.235667,-0.480918 c 0.129673,-0.268367 0.267239,-0.550264 0.40706,-0.831598 0.05469,-0.107122 0.164065,-0.17365 0.284717,-0.17365 h 0.0056 l 0.08288,5.64e-4 c 0.447654,0 0.983823,-0.06935 1.450646,-0.137002 0.204658,-0.02932 0.407061,-0.06089 0.598751,-0.0919 0.429613,-0.06653 0.800026,-0.125162 1.074595,-0.136438 0.06822,0 0.249198,0.01297 0.502906,0.02988 l 0.572252,0.03834 c 0.719967,0.04285 1.306879,0.06484 1.794562,0.06484 0.291482,0 0.547445,-0.0079 0.761688,-0.02312 0.384509,-0.02706 0.738008,-0.08682 1.021598,-0.171394 0.08062,-0.02424 0.168011,-0.05356 0.254271,-0.0919 0.04059,-0.01748 0.08401,-0.02593 0.126855,-0.02593 0.08062,0 0.160117,0.03101 0.220444,0.08964 0.156735,0.15448 0.324746,0.308396 0.495012,0.457238 0.09528,0.08344 0.131365,0.217062 0.09077,0.337714 -0.04059,0.120089 -0.148278,0.205222 -0.275132,0.214806 -0.06427,0.0045 -0.126854,0.01184 -0.186053,0.01973 -0.201838,0.02706 -0.566614,0.107685 -0.750975,0.346171 -0.06202,0.07949 -0.155044,0.122907 -0.250326,0.122907 -0.04341,0 -0.0857,-0.009 -0.126854,-0.0265 -0.04341,-0.01917 -0.08739,-0.03439 -0.132492,-0.04736 -0.09866,-0.02706 -0.19169,-0.03157 -0.270622,-0.03326 h -0.04003 l -0.107685,5.64e-4 -0.162373,0.0017 h -0.09076 c -0.286408,0 -0.958452,0 -1.539162,0.09415 -0.35801,0.05863 -0.640472,0.144895 -0.840619,0.258782 -0.19,0.107685 -0.412135,0.303322 -0.394094,0.624122 0.03495,0.595932 0.872756,2.205005 1.443881,2.776694 0.110504,0.10994 0.485992,0.228901 0.901509,0.228901 0.04454,0 0.08852,-0.0017 0.13362,-0.0051 0.0079,-0.0011 0.01522,-0.0011 0.02312,-0.0011 0.11727,0 0.225518,0.06653 0.280206,0.173085 0.584657,1.150707 1.596106,1.923671 2.517348,1.923107 l 0.05976,-5.63e-4 c 0.880649,-0.03214 3.25592,-0.890234 4.9225,-1.672782 0.02086,-0.009 0.04228,-0.01691 0.0654,-0.02199 0.05243,-0.0124 0.115015,-0.02312 0.180415,-0.03045 0.09866,-0.01522 0.209168,-0.02706 0.328129,-0.04116 l 0.166884,-0.01861 c 0.367594,-0.04398 0.784804,-0.108812 1.089814,-0.253708 0.27965,-0.133055 0.6884,-0.657385 1.03964,-1.336195 0.0547,-0.105994 0.16238,-0.17083 0.27965,-0.17083 0.0107,0 0.0203,0.0011 0.0305,0.0023 0.12798,0.01128 0.23623,0.09979 0.27344,0.223263 0.0412,0.135875 0.0891,0.255963 0.14715,0.365339 0.28359,0.534479 0.79044,0.806792 1.50702,0.806792 0.0389,0 0.0772,-0.0011 0.11727,-0.0023 0.4905,-0.01917 1.034,-0.185489 1.50308,-0.338278 l 0.26837,-0.08852 c 0.40255,-0.134748 0.78255,-0.261038 1.1383,-0.324747 0.12686,-0.02312 0.2695,-0.03383 0.43751,-0.03383 0.0761,0 0.1556,0.0017 0.23961,0.0056 0.14941,0.0073 0.30107,0.01973 0.45273,0.03157 0.10205,0.0079 0.20466,0.01579 0.30727,0.02255 0.14433,0.009 0.29655,0.01804 0.45442,0.01804 0.43807,0 0.77578,-0.06484 1.08192,-0.210296 0.44371,-0.183233 0.78762,-0.431303 1.01596,-0.595932 l 0.084,-0.06033 c 0.0547,-0.04059 0.11896,-0.06033 0.18492,-0.06033 0.075,0 0.14997,0.02706 0.2103,0.08006 0.62243,0.554211 1.96257,1.483347 3.93811,1.483347 0.0665,0 0.13362,-5.64e-4 0.20128,-0.0034 0.4702,-0.01522 0.83893,-0.170266 1.03907,-0.438633 0.1325,-0.17816 0.17478,-0.392966 0.11896,-0.604953 -0.0226,-0.08513 -0.007,-0.176468 0.04,-0.251453 0.0474,-0.07442 0.12404,-0.125163 0.21086,-0.140949 0.32419,-0.05751 0.58635,-0.173085 0.77861,-0.343351 0.17421,-0.15448 0.2881,-0.379435 0.29091,-0.574508 0.002,-0.130801 -0.0462,-0.241869 -0.14658,-0.335459 -0.21594,-0.194509 -0.3411,-0.267239 -0.96691,-0.619047 z"
     id="path14"
     inkscape:connector-curvature="0"
     style="clip-rule:evenodd;fill:#ffffff;fill-rule:evenodd;stroke-width:0.56379569"
     inkscape:export-filename="G:\Users\suitedoalex\sites\red-bull-bragantino-logo-4.png"
     inkscape:export-xdpi="74.152"
     inkscape:export-ydpi="74.152" /><path
     d="m 109.17723,-45.593598 c 0,-5.803149 4.70487,-10.50746 10.50746,-10.50746 5.80371,0 10.50802,4.704311 10.50802,10.50746 0,5.803149 -4.70375,10.508024 -10.50802,10.508024 -5.80315,0 -10.50746,-4.704875 -10.50746,-10.508024 z"
     id="path16"
     inkscape:connector-curvature="0"
     style="clip-rule:evenodd;fill:#ffffff;fill-rule:evenodd;stroke-width:0.56379569"
     inkscape:export-filename="G:\Users\suitedoalex\sites\red-bull-bragantino-logo-4.png"
     inkscape:export-xdpi="74.152"
     inkscape:export-ydpi="74.152" /><path
     d="m 111.78816,-39.925197 c 3.06311,2.213462 7.38291,2.564143 10.75779,0.749849 3.66693,-1.897737 5.88715,-5.807096 5.55,-10.021468 -0.0648,-0.611719 -0.16181,-1.206523 -0.32249,-1.785541 1.03569,1.557203 1.63106,3.403071 1.63106,5.388195 0,5.367899 -4.35137,9.719837 -9.71983,9.719837 -3.25311,5.64e-4 -6.13297,-1.597233 -7.89653,-4.050872 z"
     id="path18"
     inkscape:connector-curvature="0"
     style="clip-rule:evenodd;fill:#d1d3d4;fill-rule:evenodd;stroke-width:0.56379569"
     inkscape:export-filename="G:\Users\suitedoalex\sites\red-bull-bragantino-logo-4.png"
     inkscape:export-xdpi="74.152"
     inkscape:export-ydpi="74.152" /><path
     d="m 116.81891,-43.16533 c -2.27097,-0.548573 -3.8231,-1.098274 -3.8231,-1.098274 -0.24581,-2.347081 -0.0378,-4.389713 -0.0378,-4.389713 0.98326,-0.512491 3.65171,-1.704355 3.65171,-1.704355 1.2691,1.439371 2.47957,3.368116 2.47957,3.368116 -0.58691,1.136612 -2.2704,3.824226 -2.2704,3.824226 z m -3.74642,-9.552954 c -1.31421,1.221181 -2.2907,2.800373 -2.77275,4.583659 0.21255,-0.317981 0.70813,-1.039639 1.27587,-1.749458 0.60101,-1.339015 1.26911,-2.461532 1.49688,-2.834201 z m 10.19963,5.653743 c 0,0 0.85133,-1.778212 1.87349,-3.217018 0,0 1.96878,0.92688 2.89566,1.684621 0,0 0.34053,1.059372 0.11332,4.162504 0,0 -1.17439,0.682193 -2.87705,1.098274 5.6e-4,5.63e-4 -1.15465,-1.949042 -2.00542,-3.728381 z m -4.41001,7.286495 4.2014,-0.113887 0.81356,2.290138 c -1.58878,0.945486 -3.50061,1.438807 -3.50061,1.438807 -2.00655,-0.436378 -3.16007,-1.306315 -3.16007,-1.306315 z m 0.82258,-15.53539 c 1.28207,0 2.50663,0.24807 3.62633,0.699107 -0.0389,0.179851 -0.17534,0.692905 -0.56887,1.342961 -2.02515,-0.26442 -4.27752,-0.05638 -4.27752,-0.05638 l -1.87124,-1.48391 c 0.97086,-0.325311 2.01106,-0.501779 3.0913,-0.501778 z m -6.22769,17.182801 c 0.1105,-0.07611 0.28133,-0.202403 0.38958,-0.322491 0,0 -1.51323,-2.175688 -2.11874,-3.426186 0,0 -1.00638,-1.034002 -1.5262,-1.572426 0.47641,2.118744 1.64459,3.975887 3.25536,5.321103 z"
     id="path20"
     inkscape:connector-curvature="0"
     style="clip-rule:evenodd;fill:#101c44;fill-opacity:1;fill-rule:evenodd;stroke-width:0.56379569"
     inkscape:export-filename="G:\Users\suitedoalex\sites\red-bull-bragantino-logo-4.png"
     inkscape:export-xdpi="74.152"
     inkscape:export-ydpi="74.152" /><path
     d="m 111.02986,-30.335596 c -0.005,0.01409 -0.0553,0.156172 -0.0553,0.156172 -0.003,0.01128 -0.0485,0.15899 -0.0485,0.15899 -0.0536,0.144332 -0.13644,0.224955 -0.26273,0.253708 -0.0744,0.02199 -0.14433,0.01128 -0.19958,-0.02988 -0.0564,-0.04229 -0.0891,-0.110504 -0.0891,-0.186053 0,-0.0034 -0.0107,-0.164064 -0.0107,-0.164064 l -0.0569,-0.563796 c -0.0445,-0.262729 -0.12178,-0.464004 -0.243,-0.63427 -0.004,-0.0051 -0.24694,-0.287536 -0.24694,-0.287536 -0.009,-0.01071 -0.28021,-0.316853 -0.28021,-0.316853 -0.21537,-0.21537 -0.40931,-0.318545 -0.61115,-0.32531 -0.15617,0.04905 -0.29882,0.152789 -0.45104,0.320236 l -0.19564,0.238485 -0.17083,0.230593 c -0.0626,0.107121 -0.2024,0.04623 -0.20409,0.04567 0,0 -0.013,-0.0068 -0.0242,-0.0124 -0.005,-0.0124 -0.0102,-0.02594 -0.0102,-0.02594 -0.044,-0.110504 -0.0609,-0.215934 -0.0609,-0.315725 0,-0.175341 0.053,-0.33264 0.10712,-0.461749 l 0.14884,-0.305014 0.17083,-0.360829 0.022,-0.03383 c 0.0524,-0.04962 0.10148,-0.137567 0.1573,-0.285281 l 0.0457,-0.124599 0.0998,-0.255399 c 0.15222,-0.327002 0.37718,-0.413826 0.70869,-0.273441 0.25709,0.137566 0.41439,0.355191 0.53392,0.5497 l 0.0817,0.135311 0.10486,0.171958 0.21593,0.275696 c 0.59143,0.663024 0.87727,1.288837 0.87727,1.935511 0,0.161245 -0.0175,0.324746 -0.053,0.489938 z m -2.24447,4.992411 c 0,0 -0.008,0.0056 -0.005,0.01015 -0.005,-0.0039 -0.0169,5.64e-4 -0.0169,5.64e-4 -0.34054,0.107121 -0.72504,0.151661 -1.14225,0.131365 l -0.0237,-0.0045 c 0.001,5.64e-4 -0.0761,-0.03383 -0.0761,-0.03383 -0.001,-0.0011 -0.0812,-0.05074 -0.0812,-0.05074 -0.04,-0.03214 -0.10149,-0.102047 -0.066,-0.206349 0.15842,-0.476972 0.62976,-1.023853 1.22513,-1.146761 0.0152,-0.0017 0.0513,-0.0017 0.0513,-0.0017 l 0.0834,5.64e-4 0.13362,0.01917 c 0.0637,0.01748 0.17421,0.07047 0.2024,0.227209 0.009,0.08795 0.0169,0.184925 0.0169,0.285845 -0.001,0.28077 -0.0598,0.586911 -0.3022,0.769017 z m -6.98374,-12.083269 c -0.0225,-0.0056 -0.0445,-0.0124 -0.0445,-0.0124 0,0 -0.003,0.0096 -0.005,0.01804 -0.007,0.0062 -0.0135,0.01353 -0.0135,0.01353 -0.0513,0.05074 -0.1449,0.08852 -0.23679,0.02706 0,0 -0.013,-0.009 -0.0248,-0.01691 -0.003,-0.0141 -0.006,-0.02988 -0.006,-0.02988 -0.14152,-0.729551 -0.30502,-1.503643 -0.60045,-2.221919 5.7e-4,0.0011 -0.16913,-0.290918 -0.16913,-0.290918 l -0.066,-0.09134 -0.14603,-0.210296 c -0.11501,-0.184925 -0.22721,-0.434686 -0.0733,-0.731243 l 0.0169,-0.02312 c 0.13362,-0.133055 0.36872,-0.144895 0.52941,-0.084 l 0.0209,0.01128 c 0.3129,0.215934 0.51418,0.572252 0.66076,0.832726 0.18549,0.431304 0.27965,0.97142 0.27965,1.529578 0,0.425665 -0.0553,0.862043 -0.16689,1.26854 5.7e-4,-0.0011 0.0226,0.0051 0.0451,0.01128 z m 14.3813,12.905847 c -1.09884,-0.6416 -1.53803,-1.850378 -2.21684,-2.803756 -0.2368,-0.349553 -0.65852,-0.569434 -0.87896,-0.916732 -0.78762,-2.144115 -1.46531,-4.287666 -1.66658,-6.742432 -0.16576,-0.604953 -0.29261,-1.227947 -0.62356,-1.796253 -0.9889,-1.611892 -2.27097,-3.078325 -3.51752,-4.562235 -0.10938,-0.10994 -0.11107,-0.120089 -0.34843,-0.348426 l -4.34179,-3.608856 c -0.53166,-0.40255 -1.13661,-0.659641 -1.74156,-0.934209 -0.915607,-0.348426 -2.161595,-0.274569 -3.058594,0.10994 -0.934773,0.494449 -1.777648,1.209342 -2.767673,1.539162 -1.428094,0.6416 -3.041114,0.769581 -4.268497,1.868983 -0.714893,0.622994 -1.319282,1.59385 -2.382037,1.429222 -1.190736,-0.05525 -2.253491,0.383945 -3.151054,1.117443 -0.806791,0.732934 -1.575809,1.59385 -2.619958,1.796253 -0.916732,0.384508 -2.033611,0.201275 -2.968385,0.549137 -1.48391,0.366467 -2.657169,1.539162 -3.920635,2.436725 -1.26403,0.73237 -2.473935,1.52112 -4.049744,1.484474 -1.025545,-0.07329 -2.015006,-0.787623 -2.344826,-1.77652 -0.311216,-1.136613 0.03608,-2.308744 0.934209,-3.078325 0.934209,-1.117443 2.418119,-1.777084 3.151618,-3.060283 0.384508,-0.677682 0.32982,-1.77652 -0.183234,-2.418119 -0.97142,-1.007503 -2.363995,-1.044714 -3.628025,-1.356493 -0.806228,-0.21988 -1.429222,-0.842874 -2.143551,-1.227383 -0.274569,0.421155 -0.365904,0.878958 -0.329257,1.392012 0.146023,1.154653 1.024981,2.198803 2.124382,2.601917 0.6416,0.275132 1.374534,0.07386 2.033611,0.220444 0.183234,0.07329 0.367031,0.255963 0.384509,0.457238 -0.03552,0.183234 -0.05412,0.366467 -0.218753,0.495013 -1.027236,0.861479 -2.107468,1.685185 -2.968948,2.74794 -0.916732,0.989461 -1.026108,2.729898 -0.549137,3.975887 0.531096,1.429222 2.015006,2.363995 3.444228,2.546101 1.044149,0.165756 1.979486,-0.109376 2.931737,-0.311215 0.128546,0 0.183234,0.129109 0.237922,0.201839 0.0919,0.842874 -0.03665,1.594414 0.147151,2.363431 0.165192,0.714329 0.40255,1.209906 0.659641,1.90563 0.03665,0.238485 0,0.494448 -0.165756,0.67881 -0.530532,0.403677 -1.080796,0.679373 -1.667144,0.9359 l -1.428658,0.09134 -0.275133,0.12911 c -0.531659,0.62243 -0.5497,1.263466 -0.878957,1.959753 -0.439761,0.733499 -1.245988,1.080797 -1.924234,1.501952 -0.219881,0.348426 -0.458366,0.714893 -0.769018,0.990025 -0.238485,0.219881 -0.531659,0.275133 -0.842874,0.311779 -0.495013,0.567743 -0.604389,1.355365 -0.733499,2.12551 0.806228,0.07329 1.649667,0.513054 2.437289,0.07329 0.677683,-0.311779 0.82427,-1.136048 1.337887,-1.630497 0.403114,-0.43976 1.008067,-0.10994 1.484474,-0.01804 0.713766,0.03665 1.227383,-0.475844 1.831772,-0.714329 0.420592,-0.275133 0.769018,-0.750976 1.208215,-1.026672 0.843438,-0.40255 2.015006,-0.183234 2.895091,-0.01748 0.696287,0.18267 1.428658,0.07273 2.034174,-0.202402 0.567743,-0.347862 1.098838,-0.787059 1.740438,-0.933646 0.567742,-0.293174 0.843438,-0.93421 1.080796,-1.465305 0.18267,-0.495577 0.660205,-0.880085 0.622994,-1.447827 -0.14715,-0.127982 -0.311215,-0.403678 -0.531095,-0.385637 -0.274569,0.385637 -0.476407,0.78875 -0.788186,1.155781 -1.32492,1.806966 -2.366815,1.97836 -5.056684,1.97836 -1.997528,-0.07273 -3.793218,0.531659 -5.167188,2.088299 -0.09134,0.05582 -0.220444,0.0186 -0.293174,-0.05412 -0.05412,-0.21988 0.12911,-0.584656 0.219881,-0.749284 1.227947,-1.740437 3.133576,-2.143551 5.148018,-2.180198 1.099966,-0.07329 2.144115,-0.256527 3.078889,-0.732934 1.044149,-0.531096 1.758479,-1.358748 2.198803,-2.38542 0.237358,-1.15409 0.32982,-2.400642 0.623558,-3.500044 0.03608,-0.109376 0.310088,-0.19169 0.401423,-0.155043 0.109376,0.0186 0.328129,0.118961 0.328129,0.246942 -0.201275,1.136048 -0.565487,2.472808 -0.125727,3.57221 0.878958,1.156345 2.510582,0.532223 3.701883,0.476407 1.245424,-0.10994 2.246162,-0.01297 3.437462,0.06089 0.585784,-0.01748 1.019342,0.125163 1.476581,-0.241868 0.128545,-0.201839 0.180414,-0.474716 0.143204,-0.694597 -0.03665,-0.32982 -0.311779,-0.528276 0,-0.803409 0.09134,-0.07386 0.365339,-0.02537 0.438069,0.06653 0.165192,0.458366 0.237922,0.953379 0.531659,1.356493 0.586912,0.752667 1.447264,1.339014 2.253492,1.76017 0.769017,0.531659 1.41118,1.282635 1.465868,2.216844 0,0.476408 -0.439197,0.806228 -0.806228,1.026109 -0.622994,0.310651 -1.30124,0.567742 -2.03361,0.495012 -0.971984,-0.476415 -1.227384,-1.503087 -1.868983,-2.254063 -0.329257,-0.366467 -0.824269,-0.439761 -1.318718,-0.40255 -0.531659,0.05412 -1.062755,0.07273 -1.539162,0.237922 -0.128546,0.10994 -0.164629,0.274568 -0.146587,0.43976 0.32982,0.604389 0.696287,1.190737 1.062755,1.794562 0.422283,0.257091 1.008066,-0.145459 1.374534,0.312343 0.310651,0.476407 0.513054,1.044713 0.988897,1.411744 0.458366,0.40255 1.155218,0.58522 1.759043,0.329257 1.355364,-0.421155 2.71242,-0.86148 3.975887,-1.539162 h 0.421155 c 0.513054,-0.05469 1.08136,-0.01804 1.447825,-0.403114 0.40312,-0.586348 0.73294,-1.135485 1.04359,-1.759043 0.31178,-0.421719 0.16519,-1.063318 0.0378,-1.520557 -0.623,-0.769017 -0.97198,-1.631624 -1.301242,-2.512273 -0.310651,-0.09134 -0.586348,-0.274569 -0.934209,-0.256527 -0.164629,0.07329 -0.402551,0.03665 -0.495577,0.220444 l 1.447827,2.860135 c 0.0919,0.219317 0.201841,0.531096 0.146591,0.823706 -0.201279,0.605516 -0.513058,1.191864 -1.007507,1.631625 -0.09133,0.05469 -0.201275,0.10994 -0.274004,-0.01804 0.1635,-0.622994 0.457238,-1.300677 0.421155,-2.01557 l -1.410617,-2.548356 c -0.165192,-0.348426 -0.458366,-0.659641 -0.43976,-1.062755 0,-0.183233 0.164064,-0.311779 0.311779,-0.383945 0.622994,-0.202402 1.374534,-0.165756 1.849813,-0.660204 0.623561,-0.97142 0.753231,-1.923671 0.918421,-3.078325 0.0367,-0.07386 0.1838,-0.214242 0.29374,-0.214242 0.10994,-0.03665 0.23567,0.122343 0.29036,0.177595 0.18436,1.26403 -0.0733,2.546665 -0.80567,3.536127 -0.0366,0.129109 -0.0913,0.293737 0.0553,0.385072 0.69573,0.219881 1.42922,0 2.01557,-0.311779 0.75154,0.01861 1.44726,-0.165192 2.12607,-0.274568 0.0727,0.03608 0.14603,0.109376 0.14603,0.183233 -0.4578,0.512491 -0.7149,1.080233 -0.84288,1.741002 -0.5497,0.569433 -1.33788,1.063882 -1.39314,1.888151 0.0925,0.40255 0.44033,0.01804 0.67881,0.05525 0.10994,0.0186 0.18324,0.109377 0.18324,0.219317 l -0.5497,0.806228 c -0.29317,0.476407 0.0547,1.026108 0.0547,1.484474 0.12855,0.365903 0.56831,0.5497 0.95225,0.5497 0.8254,-0.03608 1.55833,-0.348425 2.29127,-0.604952 0.80566,-0.348426 1.81317,-0.329821 2.69269,-0.183234 0.86091,-0.05412 1.50308,-0.62243 2.14298,-1.190736 0.34899,0 0.66021,0.238485 0.8987,0.495012 0.98833,1.062191 2.27153,1.520557 3.71879,1.484474 l 0.12798,-0.07329 c 0.0919,-0.0919 0.0547,-0.256527 -0.0553,-0.330385 l -0.86035,-0.438636 c -0.60439,-0.385636 -1.35593,-0.898126 -1.55721,-1.576372 -0.18323,-0.604953 -0.51305,-1.264594 -0.88008,-1.850942 -0.12798,-0.293173 -0.42116,-0.532223 -0.54914,-0.825396 0.0361,-0.03665 0.0733,-0.09246 0.12798,-0.07386 0.95338,0.330385 1.52056,1.265722 1.96032,2.108596 0.69685,0.970293 1.70435,1.794562 3.02307,1.575809 l 0.11051,-0.09134 c 0.0553,-0.07329 0.0361,-0.165192 0,-0.220444 z"
     id="path22"
     inkscape:connector-curvature="0"
     style="clip-rule:evenodd;fill:#d61e3f;fill-opacity:1;fill-rule:evenodd;stroke-width:0.56379569"
     inkscape:export-filename="G:\Users\suitedoalex\sites\red-bull-bragantino-logo-4.png"
     inkscape:export-xdpi="74.152"
     inkscape:export-ydpi="74.152" /><path
     d="m 67.538095,-22.486996 c 0.568306,-0.329821 0.934773,-0.952815 1.228511,-1.48391 -0.05525,-0.201275 -0.257091,-0.348426 -0.422283,-0.495577 -0.108813,-0.09134 -0.274005,-0.01804 -0.403114,0.01917 -0.40255,0.348426 -0.823706,0.622995 -1.263466,0.897563 -0.183234,0.128545 -0.10994,0.403678 -0.146587,0.604953 0,0.18267 0.219316,0.311215 0.32982,0.420591 0.201275,0.09303 0.457802,0.110504 0.677119,0.03721 z"
     id="path24"
     inkscape:connector-curvature="0"
     style="clip-rule:evenodd;fill:#d61e3f;fill-opacity:1;fill-rule:evenodd;stroke-width:0.56379569"
     inkscape:export-filename="G:\Users\suitedoalex\sites\red-bull-bragantino-logo-4.png"
     inkscape:export-xdpi="74.152"
     inkscape:export-ydpi="74.152" /><path
     d="m 65.614988,-22.43118 c -0.293174,0.146023 -0.604953,0.421155 -0.678246,0.750976 -0.09246,0.585783 0.03665,1.135484 -0.421156,1.557203 -0.01861,0.10994 -0.128545,0.237922 -0.01861,0.348426 0.403114,0.127982 0.788186,0.293174 1.282635,0.347862 0.219881,-0.714893 0.385073,-1.501388 0.6416,-2.124946 v -0.183797 c -0.220444,-0.275133 -0.440325,-0.623558 -0.806228,-0.695724 z"
     id="path26"
     inkscape:connector-curvature="0"
     style="clip-rule:evenodd;fill:#d61e3f;fill-opacity:1;fill-rule:evenodd;stroke-width:0.56379569"
     inkscape:export-filename="G:\Users\suitedoalex\sites\red-bull-bragantino-logo-4.png"
     inkscape:export-xdpi="74.152"
     inkscape:export-ydpi="74.152" /><path
     d="m 93.408988,-24.374584 c 0.367031,0.403678 0.348989,1.026108 0.770145,1.337323 0.549137,0.09246 1.043585,-0.127981 1.46474,-0.457238 0.239614,-0.201839 -0.109376,-0.45893 -0.145459,-0.697415 -0.238485,-0.347862 -0.07386,-1.04415 -0.660204,-1.062191 -0.586348,0.09134 -1.172132,0.10994 -1.758479,0.10994 l -0.165756,0.10994 c -0.109376,0.34899 0.403114,0.34899 0.495013,0.659641 z"
     id="path28"
     inkscape:connector-curvature="0"
     style="clip-rule:evenodd;fill:#d61e3f;fill-opacity:1;fill-rule:evenodd;stroke-width:0.56379569"
     inkscape:export-filename="G:\Users\suitedoalex\sites\red-bull-bragantino-logo-4.png"
     inkscape:export-xdpi="74.152"
     inkscape:export-ydpi="74.152" /><path
     d="m 174.31705,-20.54472 c -0.0919,-0.421719 0.018,-1.007503 -0.25653,-1.392011 -0.23848,-0.183234 -0.45836,-0.458366 -0.76902,-0.385073 -0.25652,0.21988 -0.64159,0.476407 -0.58634,0.86148 0.21988,0.659641 0.36646,1.135484 0.49557,1.813731 0.0727,0.127981 0,0.384508 0.20072,0.384508 l 1.17269,-0.384508 c 0.20128,-0.329821 -0.1838,-0.586912 -0.25709,-0.898127 z"
     id="path30"
     inkscape:connector-curvature="0"
     style="clip-rule:evenodd;fill:#d61e3f;fill-opacity:1;fill-rule:evenodd;stroke-width:0.56379569"
     inkscape:export-filename="G:\Users\suitedoalex\sites\red-bull-bragantino-logo-4.png"
     inkscape:export-xdpi="74.152"
     inkscape:export-ydpi="74.152" /><path
     d="m 140.68438,-41.763734 -0.0789,0.155044 c 0,0 -0.0857,0.137566 -0.0857,0.137566 -0.001,-0.0017 -0.57789,0.536169 -0.57789,0.536169 l -0.61848,0.577891 c -0.46457,0.450473 -0.79044,0.832162 -1.02498,1.199193 -0.19733,0.269495 -0.34561,0.583529 -0.48881,0.887415 -0.0445,0.09077 -0.15505,0.09303 -0.21481,0.07329 0,0 -0.018,-0.0056 -0.0344,-0.01071 -0.005,-0.01635 -0.0107,-0.03383 -0.0107,-0.03383 -0.0389,-0.116142 -0.0586,-0.238485 -0.0586,-0.373796 0,-0.102047 0.0107,-0.210296 0.0327,-0.329257 0,0 0.11501,-0.457238 0.11501,-0.457238 l 0.0569,-0.206349 c 0.35181,-0.934774 1.13718,-1.911268 2.15427,-2.674083 0.1308,-0.08288 0.37323,-0.141513 0.55872,-0.08344 0.11219,0.03495 0.19225,0.108249 0.23848,0.218189 0.0445,0.07555 0.0665,0.149406 0.0665,0.225518 5.7e-4,0.05243 -0.009,0.104866 -0.0293,0.158427 l 0.044,0.01579 c -0.022,-0.0073 -0.044,-0.01579 -0.044,-0.01579 z m -7.47537,10.418944 -0.049,0.176468 c -0.0423,0.05807 -0.097,0.128545 -0.16575,0.17083 -0.0569,0.03439 -0.14546,0.06315 -0.243,0.0011 -0.097,-0.0389 -0.17196,-0.0981 -0.23792,-0.186053 -5.6e-4,-5.64e-4 -0.0778,-0.118961 -0.0778,-0.118961 l -0.0671,-0.117269 c -0.0823,-0.141513 -0.16012,-0.24807 -0.35181,-0.233412 -0.17083,-0.0079 -0.29599,0.06033 -0.40424,0.136439 l -0.11896,0.08908 -0.0671,0.0513 c -5.6e-4,5.64e-4 -0.19394,0.130237 -0.19394,0.130237 -0.008,0.0056 -0.26217,0.223263 -0.26217,0.223263 l -0.11389,0.09697 c 0,0 -0.36872,0.34166 -0.36872,0.34166 -0.26667,0.277951 -0.41157,0.531095 -0.45724,0.796079 0,5.64e-4 -0.0502,0.192819 -0.0502,0.192819 5.7e-4,-0.0011 -0.0152,0.08288 -0.0152,0.08288 l -0.0226,0.116141 c -0.0271,0.128546 -0.0722,0.270622 -0.20127,0.352373 -0.0885,0.02593 -0.19733,0.0079 -0.27964,-0.053 -0.0665,-0.04905 -0.10487,-0.118961 -0.10487,-0.190563 -0.0744,-0.885159 0.23567,-1.711684 0.85077,-2.271533 0.31178,-0.255399 0.57507,-0.564359 0.79157,-0.832726 0,0 0.23961,-0.305013 0.23961,-0.305013 l 0.48148,-0.594805 0.0541,-0.02819 c 0.35012,-0.06822 0.56774,0.24356 0.64385,0.380562 0.30389,0.390711 0.54971,0.831035 0.77804,1.392012 0.013,0.0389 0.0197,0.08062 0.0197,0.124035 -5.6e-4,0.02537 -0.003,0.05074 -0.007,0.07724 z m -0.41946,6.343265 -0.0124,0.02424 c -0.11952,0.08401 -0.26724,0.118397 -0.47415,0.109377 l -0.34955,-0.04116 -0.11671,-0.01748 -0.0259,-0.0085 c -0.35068,-0.195637 -0.43638,-0.594241 -0.47641,-0.996227 0,-0.135875 0.0451,-0.239613 0.13701,-0.31347 0,0 0.0102,-0.0079 0.0192,-0.01522 h 0.0254 c 0.4826,0 0.84625,0.144332 1.08079,0.429049 0,0 0.0124,0.0203 0.0124,0.0203 l 0.0722,0.141513 0.10825,0.226646 0.0434,-0.01635 c -0.0214,0.0085 -0.0434,0.01691 -0.0434,0.01691 0.0327,0.08457 0.049,0.161809 0.049,0.233975 5.6e-4,0.07273 -0.0158,0.140949 -0.049,0.206349 z m 39.03609,3.50399 c -0.93534,0.05525 -1.39314,-0.953378 -1.94228,-1.539726 -0.45837,-0.531095 -1.35649,-0.84231 -1.33732,-1.629933 -0.1652,-0.311215 -0.20241,-0.805664 -0.34899,-1.209906 -0.12742,-0.329256 -0.25597,-0.806227 -0.69629,-0.879521 -0.78819,-0.127981 -1.74044,0.0919 -2.23489,-0.641599 -0.51249,-0.550265 0.0553,-1.191301 0.14659,-1.723524 0.21988,-0.677682 0.23849,-1.575809 0.12855,-2.272096 -0.0186,-0.403114 -0.29318,-0.731807 -0.21988,-1.135485 0.18323,-0.348425 0.62299,-0.09134 0.89699,-0.05525 1.02668,0.293738 2.23602,0.147715 3.17023,-0.255963 1.28207,-0.622994 2.3093,-1.924235 2.25405,-3.408709 -0.18379,-1.923671 -1.55776,-3.498916 -3.04111,-4.74434 -0.27513,-0.238486 -0.62356,-0.495577 -0.71546,-0.842875 -0.0355,-0.75154 0.80623,-0.385072 1.22795,-0.567742 0.51305,-0.128546 1.02611,-0.256527 1.44726,-0.549701 1.11745,-0.751539 1.35649,-2.070821 1.13605,-3.352893 -0.0367,-0.10994 -0.0367,-0.275132 -0.20127,-0.275132 -0.20184,0.165756 -0.40312,0.403678 -0.65965,0.550265 -0.71432,0.421155 -1.66827,0.347862 -2.41924,0.714893 -0.93421,0.403114 -2.0883,0.970856 -2.49198,2.033047 -0.10994,0.531659 0.0186,1.08136 0.25653,1.521684 1.13605,1.794562 3.53556,2.967821 3.92063,5.129977 0.14659,0.879521 -0.29317,1.520557 -0.97085,2.01557 -1.02611,0.622994 -2.56527,0.403114 -3.59082,-0.146587 -1.97892,-0.9889 -3.70075,-2.638566 -5.82626,-3.316248 -1.33733,-0.604389 -2.98699,-0.457803 -4.17773,-1.392576 -0.89756,-0.586347 -1.72239,-1.355365 -2.7299,-1.611892 -0.69685,-0.238485 -1.48391,-0.201275 -2.12494,-0.549137 -0.66021,-0.586911 -1.35593,-1.136048 -2.12608,-1.520557 -1.06219,-0.531659 -2.23488,-0.806227 -3.40758,-1.062754 -0.69629,-0.165192 -0.95281,-0.93421 -1.52112,-1.319282 -0.97142,-0.769017 -2.05165,-1.318718 -3.37093,-1.209342 -0.5497,0.03665 -0.97086,0.403114 -1.39314,0.769017 -2.80263,2.45533 -6.0095,4.141643 -8.57421,6.944272 -1.72239,1.777647 -2.18076,4.031139 -2.82179,6.2119 -0.91617,3.297641 -1.30068,6.926794 -4.61749,8.960405 -0.0553,0.0919 -0.0553,0.257655 0.0547,0.330385 0.87952,0.219316 1.74044,-0.12911 2.32679,-0.732935 0.5683,-0.898126 1.17325,-1.759042 1.94227,-2.583312 l 0.18324,-0.0919 c 0.0913,0.01804 0.20183,0.07329 0.16462,0.201275 -0.21988,0.732934 -0.88008,1.264593 -1.0994,1.997528 -0.29317,0.878957 -1.13661,1.557203 -1.85094,2.180198 l -0.018,0.109376 c 0,0.0919 0.0913,0.183797 0.1838,0.201839 1.61245,0.07273 2.76654,-1.080796 3.84734,-2.16272 0.1105,-0.109377 0.25596,-0.09077 0.40311,-0.05525 0.47641,0.367594 0.91617,0.916731 1.53973,1.045277 0.65964,-0.0919 1.35537,-0.18267 2.05222,-0.128546 0.97029,0.293174 1.90562,0.696288 2.87592,1.026109 0.49445,-0.01804 0.86148,-0.494449 1.11744,-0.897563 0.20128,-0.476407 -0.0913,-0.952815 -0.0547,-1.410617 0.23849,-0.146587 0.51305,0.03608 0.76902,-0.03665 0.10937,-0.07329 0.20184,-0.201839 0.20184,-0.329256 -0.18267,-0.842875 -0.93478,-1.465869 -1.1727,-2.255183 -0.36647,-1.008631 -1.55777,-1.612456 -1.77708,-2.693816 0.0547,-0.07329 0.14602,-0.18267 0.23848,-0.109376 0.78763,0.567742 1.48448,1.318718 2.45477,1.464741 0.73293,0.07386 1.48335,0.147151 2.21684,0.09246 0.10938,-0.03665 0.20128,-0.165755 0.16463,-0.292609 -0.31121,-0.659641 -0.60439,-1.319846 -0.78875,-2.034175 -0.25596,-0.897563 -0.43863,-2.143551 -0.14546,-3.133013 0.0541,-0.07386 0.29261,-0.214242 0.40312,-0.177596 0.14658,0.03665 0.32756,0.214243 0.3456,0.342788 0.11051,1.557768 -0.0524,2.986426 0.88178,4.214373 0.40255,0.641036 1.09884,0.769017 1.59385,1.26403 0.18323,0.256527 0.21988,0.677682 0.0919,0.97142 l -1.11744,1.649666 c -0.25709,0.367031 -0.51362,0.769581 -0.60496,1.173259 -0.0913,0.457802 -0.0372,0.897563 0,1.337323 -0.0733,0.03665 -0.10937,-0.07329 -0.18323,-0.109376 -0.29374,-0.604953 -0.62299,-1.375098 -0.31178,-2.088863 l 1.41062,-2.181889 0.0553,-0.165193 c -0.31122,-0.164628 -0.65964,-0.329256 -0.9889,-0.40255 -0.16463,0.07329 -0.27457,0.237922 -0.38507,0.385073 l -1.37397,2.493668 c -0.0925,0.29261 -0.1838,0.51249 -0.10994,0.824269 0.0733,0.366468 0.16463,0.732935 0.32926,1.043022 0.10937,0.513618 0.20183,0.862044 0.43976,1.32041 0.34842,0.384508 0.82539,0.03665 1.26459,0.146587 0.43976,0.10994 0.60495,0.641599 1.04415,0.769017 0.99002,0.32982 2.05222,0.513054 3.04111,0.898127 0.51362,0.164628 1.24656,0.366467 1.70436,-0.05525 0.6416,-0.347862 0.80679,-1.025545 0.91673,-1.667144 0.20071,-0.275133 0.60382,-0.164629 0.89756,-0.2554 0.5497,-0.367595 0.73237,-1.027235 1.13605,-1.521684 l 0.0727,-0.256527 c -0.0553,-0.165192 -0.20071,-0.257655 -0.34786,-0.311779 h -1.86842 c -0.86204,0.109376 -0.93477,1.062191 -1.30124,1.649666 -0.20184,0.365903 -0.60495,0.51249 -1.02611,0.476407 -0.87952,-0.237922 -1.96088,-0.367031 -2.36343,-1.319282 -0.0553,-0.237921 -0.0553,-0.531095 0.12854,-0.696287 0.45724,-0.531096 1.00751,-1.135485 1.57525,-1.575246 0.80679,-0.165192 1.59498,-0.770144 2.01557,-1.485601 0.22044,-0.311779 0.18323,-0.770145 0.5497,-1.008067 0.10938,-0.0186 0.35519,-0.02593 0.42848,0.08344 0.16576,0.531095 -0.13361,0.912221 -0.29768,1.371151 1.99696,0.201839 3.54628,-0.376052 5.48799,-0.302758 0.82427,0 1.56397,0.09472 2.36963,0.03946 0.80623,-0.03608 1.68575,-0.367031 1.94228,-1.209905 0.36646,-1.08136 -0.14377,-2.308743 -0.32757,-3.334288 l 0.22214,-0.174776 c 0.12798,-0.07273 0.34391,0.02763 0.43581,0.101483 0.34786,0.970856 0.58635,2.144115 0.73294,3.20687 0.14658,0.934209 0.5497,1.542545 1.06219,2.330731 0.93477,1.392012 2.58331,1.941149 4.21493,1.593287 1.97836,-0.146023 3.68215,0.896435 4.89206,2.435033 v 0.09134 c -0.0372,0.07273 -0.11051,0.164628 -0.2024,0.146587 -1.04359,-0.806792 -2.0883,-1.667708 -3.42675,-1.832336 -1.35199,-0.246379 -2.56471,0.457802 -3.97533,-0.10994 -1.70041,-0.559285 -2.41304,-1.607382 -3.13301,-3.280727 h -0.14659 c -0.10994,0.01804 -0.18267,0.127981 -0.20184,0.238485 l 0.18324,1.136612 c 0.22044,0.915605 0.51362,1.996965 1.50251,2.418684 0.76958,0.457802 1.52056,1.117443 2.47337,0.860916 1.66771,-0.367031 3.35233,0.10994 4.63553,1.044713 0.42116,0.237922 0.75041,0.677683 1.20878,0.842311 0.49445,0.201275 1.0994,0.09134 1.50252,-0.238486 0.93477,-0.310651 1.15465,0.86148 1.79625,1.282072 0.56774,0.549701 1.7021,0.322491 2.45364,0.322491 l -0.0175,-0.08344 c -0.0896,-0.755486 -0.29205,-1.34127 -0.58409,-2.000911 z"
     id="path32"
     inkscape:connector-curvature="0"
     style="clip-rule:evenodd;fill:#d61e3f;fill-opacity:1;fill-rule:evenodd;stroke-width:0.56379569"
     inkscape:export-filename="G:\Users\suitedoalex\sites\red-bull-bragantino-logo-4.png"
     inkscape:export-xdpi="74.152"
     inkscape:export-ydpi="74.152" /><path
     d="m 145.31314,-24.923721 c -0.49501,0.09134 -1.06275,-0.01917 -1.55776,0.05469 -0.21988,0.330384 -0.42116,0.732935 -0.36647,1.173259 0.0553,0.458366 0.56774,0.494449 0.89813,0.62243 0.31178,0.03608 0.76901,0.146587 0.93533,-0.183233 0.18267,-0.476408 0.3473,-0.989462 0.42116,-1.502516 -0.0367,-0.146587 -0.18436,-0.201275 -0.33039,-0.164628 z"
     id="path34"
     inkscape:connector-curvature="0"
     style="clip-rule:evenodd;fill:#d61e3f;fill-opacity:1;fill-rule:evenodd;stroke-width:0.56379569"
     inkscape:export-filename="G:\Users\suitedoalex\sites\red-bull-bragantino-logo-4.png"
     inkscape:export-xdpi="74.152"
     inkscape:export-ydpi="74.152" /><path
     d="m 171.34867,-24.355979 c -0.36647,-0.311215 -0.75098,0.147151 -0.93421,0.421719 0.12854,0.440325 0.49444,0.806228 0.76958,1.209342 0.14658,0.21988 0.38451,0.366467 0.6416,0.384509 0.25596,0 0.4578,-0.128546 0.64103,-0.274569 0.12855,-0.165756 0.27513,-0.367031 0.22045,-0.604389 -0.34899,-0.476407 -0.89869,-0.770708 -1.33845,-1.136612 z"
     id="path36"
     inkscape:connector-curvature="0"
     style="clip-rule:evenodd;fill:#d61e3f;fill-opacity:1;fill-rule:evenodd;stroke-width:0.56379569"
     inkscape:export-filename="G:\Users\suitedoalex\sites\red-bull-bragantino-logo-4.png"
     inkscape:export-xdpi="74.152"
     inkscape:export-ydpi="74.152" /><path
     d="m 94.130142,-13.597612 0.904315,1.104674 3.673066,-3.007552 -0.904842,-1.104808 z m -4.778277,3.9117392 0.904841,1.104797 3.673462,-3.0069082 -0.904842,-1.104803 z m 8.651337,-8.9289342 1.808999,2.210023 c 0.501169,0.612226 0.411729,1.508362 -0.200119,2.010157 l -3.374484,2.762892 c -0.507646,0.415484 -0.885302,0.350095 -1.254737,0.203666 0.115806,0.354497 0.07521,0.762043 -0.581993,1.299791 l -3.240132,2.6529522 c -0.612242,0.501147 -1.508233,0.411204 -2.009511,-0.200525 l -1.808999,-2.210017 z"
     id="path38-3"
     inkscape:connector-curvature="0"
     style="clip-rule:evenodd;fill:#151c4a;fill-opacity:1;fill-rule:evenodd;stroke-width:0.53779078"
     inkscape:export-filename="G:\Users\suitedoalex\sites\red-bull-bragantino-logo-4.png"
     inkscape:export-xdpi="74.152"
     inkscape:export-ydpi="74.152" /><path
     d="m 104.66398,-4.8538058 1.27787,0.621935 2.06753,-4.248517 -1.27806,-0.621438 z m 0.5286,-4.335042 c 0.51267,-1.0538522 1.79655,-1.4968552 2.85041,-0.9841842 1.05318,0.5129582 1.49685,1.7965522 0.98388,2.8497172 l -5.11879,10.518144 -1.27787,-0.62193 2.68968,-5.526889 -1.27806,-0.621432 -2.68949,5.526391 -1.27787,-0.62194 z"
     id="path42-1-0"
     inkscape:connector-curvature="0"
     style="clip-rule:evenodd;fill:#151c4a;fill-opacity:1;fill-rule:evenodd;stroke-width:0.53525823"
     inkscape:export-filename="G:\Users\suitedoalex\sites\red-bull-bragantino-logo-4.png"
     inkscape:export-xdpi="74.152"
     inkscape:export-ydpi="74.152" /><path
     style="fill:#151c4a;fill-opacity:1;fill-rule:nonzero;stroke:none;stroke-width:0.38354257"
     id="path4941-12"
     d="m 124.52098,5.9617392 1.41221,-0.21499 -0.60321,-3.94584 c -0.18403,-1.20186902 -0.66746,-3.605201 -0.91881,-4.738294 l 0.0384,-0.0058 c 0.88147,2.96711098 2.03755,5.679764 2.97042,8.462844 l 1.33532,-0.2038 -2.07946,-13.613541 -1.41184,0.214767 0.60401,3.947855 c 0.18242,1.200468 0.66745,3.60520898 0.91747,4.73685398 l -0.0387,0.0064 C 125.86519,-2.3590118 124.70943,-5.0703618 123.7764,-7.8546498 l -1.33416,0.20344 z"
     inkscape:connector-curvature="0"
     inkscape:export-filename="G:\Users\suitedoalex\sites\red-bull-bragantino-logo-4.png"
     inkscape:export-xdpi="74.152"
     inkscape:export-ydpi="74.152" /><rect
     x="123.73196"
     y="38.054279"
     transform="matrix(0.93667745,-0.35019331,0.35024323,0.93665878,0,0)"
     width="1.4883795"
     height="12.324801"
     id="rect46-3-0-4-3"
     style="clip-rule:evenodd;fill:#151c4a;fill-opacity:1;fill-rule:evenodd;stroke-width:0.5193181"
     inkscape:export-filename="G:\Users\suitedoalex\sites\red-bull-bragantino-logo-4.png"
     inkscape:export-xdpi="74.152"
     inkscape:export-ydpi="74.152" /><rect
     x="-38.017597"
     y="122.22961"
     transform="matrix(-0.35096763,-0.93638759,0.9368399,-0.3497585,0,0)"
     width="1.5134791"
     height="4.3643351"
     id="rect46-3-0-4-7-1"
     style="clip-rule:evenodd;fill:#151c4a;fill-opacity:1;fill-rule:evenodd;stroke-width:0.31162617"
     inkscape:export-filename="G:\Users\suitedoalex\sites\red-bull-bragantino-logo-4.png"
     inkscape:export-xdpi="74.152"
     inkscape:export-ydpi="74.152" /><rect
     x="120.40594"
     y="55.864403"
     transform="rotate(-29.492371)"
     width="1.4337093"
     height="13.834349"
     id="rect46-3-07-3"
     style="clip-rule:evenodd;fill:#151c4a;fill-opacity:1;fill-rule:evenodd;stroke-width:0.54000348"
     inkscape:export-filename="G:\Users\suitedoalex\sites\red-bull-bragantino-logo-4.png"
     inkscape:export-xdpi="74.152"
     inkscape:export-ydpi="74.152" /><path
     style="fill:#151c4a;fill-opacity:1;fill-rule:nonzero;stroke:none;stroke-width:0.38368288"
     id="path4941-1-1"
     d="m 143.64141,-1.4375698 1.106,-0.904876 -2.53045,-3.088997 c -0.77101,-0.94075 -2.41212,-2.763066 -3.20604,-3.610277 l 0.0302,-0.02458 c 2.27111,2.104706 4.64889,3.850426 6.87044,5.770539 l 1.04554,-0.856051 -8.72888,-10.6582472 -1.10581,0.904498 2.53218,3.090339 c 0.76892,0.9403212 2.41211,2.7630552 3.20412,3.6097072 l -0.0301,0.02526 c -2.27127,-2.10472 -4.64812,-3.8494762 -6.87042,-5.7705422 l -1.04472,0.855143 z"
     inkscape:connector-curvature="0"
     inkscape:export-filename="G:\Users\suitedoalex\sites\red-bull-bragantino-logo-4.png"
     inkscape:export-xdpi="74.152"
     inkscape:export-ydpi="74.152" /><path
     style="fill:#151c4a;fill-opacity:1;fill-rule:nonzero;stroke:none;stroke-width:0.38357493"
     id="path4949-6"
     d="m 150.59292,-10.372057 -0.88429,1.1214912 -8.57023,-6.7637782 0.88339,-1.12073 z m -2.23864,1.8716602 c 0.92397,0.727646 2.27805,0.568256 3.00783,-0.355873 0.72811,-0.923131 0.56951,-2.2774532 -0.35513,-3.0058092 l -7.63094,-6.02334 c -0.92513,-0.729185 -2.27886,-0.570003 -3.00685,0.355282 -0.72981,0.922172 -0.57098,2.27721 0.35398,3.006497 z"
     inkscape:connector-curvature="0"
     inkscape:export-filename="G:\Users\suitedoalex\sites\red-bull-bragantino-logo-4.png"
     inkscape:export-xdpi="74.152"
     inkscape:export-ydpi="74.152" /><path
     d="m 98.956043,-8.6723498 1.122577,0.875189 2.90941,-3.7320352 -1.12275,-0.874655 z m 2.662087,-5.7293132 2.24495,1.750634 c 0.62183,0.485185 0.73239,1.375975 0.24717,1.997787 l -2.67281,3.4285102 c -0.40207,0.515432 -0.78355,0.535834 -1.17495,0.473826 0.19019,0.319387 0.24044,0.723814 -0.279674,1.391936 l -2.814807,3.610728 c -0.236464,0.303006 -0.292908,0.62532 -0.354244,1.01636198 L 95.661224,-1.6309768 c 0.05578,-0.321959 0.171089,-0.720096 0.384094,-0.993423 l 3.158016,-4.050321 -1.122572,-0.875191 -3.784566,4.854001 -1.12275,-0.874654 z"
     id="path40-1-2"
     inkscape:connector-curvature="0"
     style="clip-rule:evenodd;fill:#151c4a;fill-opacity:1;fill-rule:evenodd;stroke-width:0.53606278"
     inkscape:export-filename="G:\Users\suitedoalex\sites\red-bull-bragantino-logo-4.png"
     inkscape:export-xdpi="74.152"
     inkscape:export-ydpi="74.152" /><path
     style="fill:#151c4a;fill-opacity:1;stroke-width:0.18173765"
     inkscape:connector-curvature="0"
     class="cls-2"
     d="m 112.6095,3.4230192 1.29267,-5.328665 -2.08858,-0.505708 -0.36536,1.50990298 0.58043,0.13967 -1.03995,4.30939002 -1.1798,-0.28461 2.44986,-10.132143 1.18029,0.286728 -0.4928,2.036205 1.50766,0.363964 0.37726,-1.554193 c 0.6795,-2.799747 -3.51834,-3.815962 -4.19781,-1.016204 l -2.21706,9.167533 c -0.85388,2.9036 3.63379,3.98259 4.19318,1.00818 z"
     id="path10-6-9"
     sodipodi:nodetypes="ccccccccccccccc"
     inkscape:export-filename="G:\Users\suitedoalex\sites\red-bull-bragantino-logo-4.png"
     inkscape:export-xdpi="74.152"
     inkscape:export-ydpi="74.152" /><path
     d="m 117.88897,-1.4444978 1.42671,0.07417 0.24642,-4.743304 -1.4267,-0.07363 z m -1.21182,-4.219516 c 0.061,-1.176516 1.07535,-2.090291 2.25187,-2.029345 1.176,0.06147 2.0903,1.075353 2.0288,2.251355 l -0.6102,11.743163 -1.42672,-0.0742 0.32059,-6.17056702 -1.4267,-0.07363 -0.3206,6.17002702 -1.42672,-0.0742 z"
     id="path42-1-8-0"
     inkscape:connector-curvature="0"
     style="clip-rule:evenodd;fill:#151c4a;fill-opacity:1;fill-rule:evenodd;stroke-width:0.53806889"
     inkscape:export-filename="G:\Users\suitedoalex\sites\red-bull-bragantino-logo-4.png"
     inkscape:export-xdpi="74.152"
     inkscape:export-ydpi="74.152" /></g></svg>