<?xml version="1.0" encoding="UTF-8"?>
<!DOCTYPE svg PUBLIC "-//W3C//DTD SVG 1.1//EN" "http://www.w3.org/Graphics/SVG/1.1/DTD/svg11.dtd">
<!-- Creator: CorelDRAW 2020 (64 Bit) -->
<svg xmlns="http://www.w3.org/2000/svg" xml:space="preserve" width="99.3778mm" height="119.474mm" version="1.1" style="shape-rendering:geometricPrecision; text-rendering:geometricPrecision; image-rendering:optimizeQuality; fill-rule:evenodd; clip-rule:evenodd"
viewBox="0 0 1797.23 2160.66"
 xmlns:xlink="http://www.w3.org/1999/xlink"
 xmlns:xodm="http://www.corel.com/coreldraw/odm/2003">
 <defs>
  <style type="text/css">
   <![CDATA[
    .fil3 {fill:#FEFEFE}
    .fil1 {fill:#373435}
    .fil0 {fill:#F6C62D}
    .fil2 {fill:#DD3939}
   ]]>
  </style>
 </defs>
 <g id="Camada_x0020_1">
  <metadata id="CorelCorpID_0Corel-Layer"/>
  <g id="_2350774887648">
   <path class="fil0" d="M151.79 0l1493.65 0c83.68,0 151.79,68.11 151.79,151.79l0 508.03c0,633.58 -256.91,1210.33 -856.66,1481.84l-41.95 18.99 -41.96 -18.99c-599.74,-271.51 -856.66,-848.26 -856.66,-1481.84l0 -508.03c0,-83.69 68.11,-151.79 151.79,-151.79z"/>
   <path class="fil1" d="M151.79 50.86l1493.65 0c55.61,0 100.93,45.32 100.93,100.93l0 508.03c0,558.58 -203.76,1071.85 -678.73,1357.84l0 -265.01c-106.34,51.93 -231.69,51.93 -338.04,0l0 265.01c-474.98,-285.99 -678.73,-799.26 -678.73,-1357.84l0 -508.03c0,-55.61 45.32,-100.93 100.93,-100.93z"/>
   <path class="fil2" d="M146.45 101.73c501.44,0 1002.88,0 1504.32,0 26.54,5.52 41.86,22.99 43.9,42.52l0 489.81 -796.05 212.27 -796.07 -212.27 0 -489.81c2.04,-19.54 17.36,-37 43.9,-42.52z"/>
   <path class="fil1" d="M898.61 1020.15c213.03,0 385.72,172.69 385.72,385.72 0,213.03 -172.69,385.72 -385.72,385.72 -213.02,0 -385.72,-172.69 -385.72,-385.72 0,-213.02 172.69,-385.72 385.72,-385.72z"/>
   <path class="fil1" d="M425.7 337.98l153.66 0 0 127.92 -153.66 0 0 179.48 -127.92 0 0 -378.99c0,-59.38 48.51,-107.89 107.89,-107.89l282.74 0 0 127.92 -242.67 0c-24.57,0 -20.04,4.36 -20.04,51.57zm408.31 123.28l0 184.12 -127.92 0 0 -486.88 277.15 0c59.38,0 107.89,48.51 107.89,107.89l0 86.98c0,59.38 -48.51,107.89 -107.89,107.89l-149.23 0zm402.72 -123.28l153.66 0 0 127.92 -153.66 0 0 179.48 -127.92 0 0 -378.99c0,-59.38 48.51,-107.89 107.89,-107.89l282.74 0 0 127.92 -242.67 0c-24.57,0 -20.05,4.36 -20.05,51.57zm-402.72 -51.57l0 46.93 119.2 0c5.47,0 10.01,-4.54 10.01,-10.01l0 -26.91c0,-5.47 -4.54,-10.01 -10.01,-10.01l-119.2 0z"/>
   <path class="fil1" d="M974.71 1983.38l5.85 -38.06c-19.52,0 -39.04,0 -58.55,0 -17.96,0 -22.24,-16.07 -17.28,-30.71l31.58 -83.56 90.54 0 0 39.87 -69.34 0 -11.82 34.53 44.29 0c16.08,0 32.98,13.39 30.55,30.62l-8.01 56.71c-2.25,15.93 -16.11,28.31 -27.94,30.47l-90.31 0 0 -39.87 80.46 0zm-105.42 -112.46l-74.16 0 0 -39.87 118.46 0 0 39.52 -99.13 152.69 -44.08 0 98.91 -152.33z"/>
   <path class="fil0" d="M898.62 1071.02c184.93,0 334.85,149.92 334.85,334.85 0,184.94 -149.92,334.85 -334.85,334.85 -184.94,0 -334.86,-149.92 -334.86,-334.85 0,-184.93 149.92,-334.85 334.86,-334.85z"/>
   <path class="fil0" d="M405.67 358l153.65 0 0 87.86 -153.65 0 0 179.48 -87.87 0 0 -358.97c0,-48.33 39.54,-87.86 87.87,-87.86l262.72 0 0 87.86 -222.65 0c-31.42,0 -39.84,11.43 -40.07,41.4l0 50.22zm577.57 -179.49c48.33,0 87.87,39.54 87.87,87.86l0 86.98c0,48.33 -39.54,87.86 -87.87,87.86l-169.26 0 0 184.12 -87.86 0 0 -446.83 257.12 0zm-169.26 87.86l139.22 0c16.52,0 30.04,13.52 30.04,30.04l0 26.91c0,16.52 -13.51,30.04 -30.04,30.04l-139.22 0 0 -86.98zm402.72 91.62l153.66 0 0 87.86 -153.66 0 0 179.48 -87.86 0 0 -358.97c0,-48.33 39.54,-87.86 87.86,-87.86l262.72 0 0 87.86 -222.65 0c-31.42,0 -39.85,11.43 -40.07,41.4l0 50.22z"/>
   <path class="fil1" d="M898.62 1121.88c156.84,0 283.98,127.15 283.98,283.98 0,156.84 -127.15,283.99 -283.98,283.99 -156.84,0 -283.99,-127.15 -283.99,-283.99 0,-156.84 127.15,-283.98 283.99,-283.98z"/>
   <path class="fil3" d="M208.83 713.85l0 588.39c-70.15,-189.7 -104.55,-398.9 -106.96,-616.91l106.96 28.52zm1379.56 588.46l0 -588.46 106.96 -28.52c-2.42,218.04 -36.79,427.27 -106.96,616.98zm-91.36 -564.1l0 763.57c-35.93,64.58 -76.98,125.95 -123.35,183.53l0 -914.21 123.35 -32.9zm-214.7 57.25l0 570.95c-9.83,-96.75 -55.42,-182.92 -123.34,-245.1l0 -292.97 123.34 -32.89zm0 649.86l0 341.54c-38.25,38.1 -79.34,74.07 -123.34,107.68l0 -204.12c67.92,-62.19 113.51,-148.35 123.34,-245.1zm-214.7 -592.62l0 206.38c-38.03,-18.57 -79.56,-31.06 -123.34,-36.23l0 -137.26 123.34 -32.89zm-214.7 32.89l0 137.26c-43.78,5.16 -85.32,17.65 -123.34,36.22l0 -206.37 123.34 32.89zm-214.7 -57.25l0 292.97c-67.91,62.17 -113.51,148.34 -123.34,245.08l0 -570.93 123.34 32.89zm0 862.08l0 204.11c-44.01,-33.61 -85.08,-69.61 -123.34,-107.72l0 -341.47c9.84,96.74 55.43,182.9 123.34,245.08zm-214.7 -919.32l0 914.12c-46.36,-57.58 -87.42,-118.93 -123.34,-183.51l0 -763.51 123.34 32.9z"/>
   <path class="fil3" d="M806.04 1283.8c26.39,9.49 59.4,30.08 88.14,53.7l0 127.16c-27.32,13.07 -67.93,39.4 -95.29,61.82 -38.8,-17.44 -65.9,-31.28 -95.28,-60.49l0 -122.14c34.64,-26.36 68.98,-49 102.44,-60.05zm92.57 -138.47c33.75,0 75.3,7.83 103.6,21.51 -19.48,7.86 -41.91,16.86 -55.5,28.26 -31.14,-6.85 -64.11,-7.28 -99.26,0 -13.25,-11.1 -34.88,-19.94 -54,-27.65 32.16,-14.21 67.73,-22.12 105.16,-22.12zm119.83 29.14c52.56,27.29 94.65,71.94 118.66,126.37l-43.48 32.89c-30.4,-22.79 -64.43,-46.87 -98.38,-57.84 -10.06,-26.45 -22.33,-51.12 -38.27,-72.85 17.35,-12.14 37.48,-21.97 61.48,-28.58zm118.66 336.42c-24.01,54.43 -66.1,99.09 -118.66,126.37 -23.99,-6.61 -44.12,-16.44 -61.48,-28.58 15.94,-21.73 28.21,-46.41 38.27,-72.85 33.95,-10.97 67.98,-35.05 98.38,-57.84l43.48 32.9zm-136.63 134.85c-66.04,28.09 -141.44,27.52 -207.01,-1.45 19.12,-7.71 40.75,-16.55 54,-27.65 35.15,7.28 68.12,6.85 99.26,0 13.59,11.39 36.02,20.4 55.5,28.26l-1.74 0.84zm-221.68 -8.47c-52.57,-27.28 -94.65,-71.95 -118.65,-126.37l43.48 -32.9c30.41,22.79 64.44,46.87 98.38,57.84 10.06,26.45 22.33,51.12 38.28,72.85 -17.35,12.14 -37.48,21.97 -61.48,28.58zm-118.65 -336.42c24.01,-54.43 66.09,-99.09 118.65,-126.37 24,6.61 44.13,16.44 61.48,28.58 -15.95,21.73 -28.22,46.41 -38.28,72.85 -33.94,10.97 -67.97,35.05 -98.38,57.84l-43.48 -32.89zm331.05 -17.05c-26.39,9.49 -59.4,30.08 -88.14,53.7l0 127.16c27.31,13.07 67.93,39.4 95.29,61.82 38.8,-17.44 65.9,-31.28 95.28,-60.49l0 -122.14c-34.63,-26.36 -68.98,-49 -102.43,-60.05z"/>
  </g>
 </g>
</svg>
